<?xml version="1.0" encoding="UTF-8"?>
<svg id="Camada_2" data-name="Camada 2" xmlns="http://www.w3.org/2000/svg" xmlns:xlink="http://www.w3.org/1999/xlink" viewBox="0 0 913.93 137.19">
  <defs>
    <style>
      .cls-1 {
        fill: #fff;
      }

      .cls-2 {
        fill: url(#Gradiente_sem_nome_7-2);
      }

      .cls-3 {
        fill: url(#Gradiente_sem_nome_7-3);
      }

      .cls-4 {
        fill: url(#Gradiente_sem_nome_7);
      }
    </style>
    <linearGradient id="Gradiente_sem_nome_7" data-name="Gradiente sem nome 7" x1="557.94" y1="1432.62" x2="501.86" y2="1513" gradientTransform="translate(0 1549.02) scale(1 -1)" gradientUnits="userSpaceOnUse">
      <stop offset="0" stop-color="#00b047"/>
      <stop offset="1" stop-color="#cfe148"/>
    </linearGradient>
    <linearGradient id="Gradiente_sem_nome_7-2" data-name="Gradiente sem nome 7" x1="0" y1="68.59" x2="186.98" y2="68.59" gradientTransform="matrix(1,0,0,1,0,0)" xlink:href="#Gradiente_sem_nome_7"/>
    <linearGradient id="Gradiente_sem_nome_7-3" data-name="Gradiente sem nome 7" x1="402.79" y1="1398.45" x2="303.97" y2="1540.1" xlink:href="#Gradiente_sem_nome_7"/>
  </defs>
  <g id="Camada_2-2" data-name="Camada 2">
    <g>
      <path class="cls-4" d="M529.9,16.95h0c1.26,0,2.28,1.02,2.28,2.28v113.96c0,1.26-1.02,2.28-2.28,2.28h0c-1.26,0-2.28-1.02-2.28-2.28V19.24c0-1.26,1.02-2.28,2.28-2.28h0Z"/>
      <g id="Camada_1-2-2" data-name="Camada 1-2-2">
        <g>
          <g>
            <g>
              <path class="cls-1" d="M596.34,23.82c-1.96.22-3.88.79-5.65,1.8l-32.29,18.65c-2.94,1.7-5.13,4.35-6.3,7.42h44.24v-27.88h0Z"/>
              <path class="cls-1" d="M596.33,56.43l-21.53,21.53h0c-7.01,7.02-15.26,15.27-22.27,22.28,1.24,2.64,3.26,4.91,5.87,6.42l32.29,18.65c1.77,1.01,3.69,1.6,5.65,1.8V56.43h-.01Z"/>
              <path class="cls-1" d="M571.44,77.23c7.68-7.68,15.37-15.37,23.05-23.05h-43.08c-.16.86-.25,1.74-.25,2.63v37.28c0,1.04.15,2.05.37,3.04,6.23-6.23,12.47-12.47,18.7-18.7l1.21-1.21h.01Z"/>
            </g>
            <g>
              <path class="cls-1" d="M599.08,23.81c1.96.22,3.88.79,5.65,1.8l32.29,18.65c2.94,1.7,5.13,4.35,6.3,7.42h-44.24s0-27.87,0-27.87Z"/>
              <path class="cls-1" d="M599.09,56.41l21.53,21.53h0c7.01,7.02,15.26,15.27,22.27,22.28-1.24,2.64-3.26,4.91-5.87,6.42l-32.29,18.65c-1.77,1.01-3.69,1.6-5.65,1.8V56.41h.01Z"/>
              <path class="cls-1" d="M623.98,77.21c-7.68-7.68-15.37-15.37-23.05-23.05h43.08c.16.86.25,1.74.25,2.63v37.28c0,1.04-.15,2.05-.37,3.04-6.23-6.23-12.47-12.47-18.7-18.7l-1.21-1.21h-.01Z"/>
            </g>
          </g>
          <g>
            <g>
              <path class="cls-1" d="M677.31,51.31c2.26,0,4.2.86,5.78,2.59,1.62,1.73,2.42,3.82,2.42,6.29s-.81,4.62-2.42,6.32c-1.57,1.7-3.49,2.56-5.78,2.56s-4.17-.82-5.45-2.46v8.71h-4.34v-23.54h4.34v1.98c1.28-1.64,3.1-2.46,5.45-2.46h0ZM673.16,63.61c.87.87,1.98,1.32,3.33,1.32s2.46-.44,3.33-1.32,1.35-2.04,1.35-3.43-.45-2.52-1.35-3.4c-.87-.9-1.98-1.35-3.33-1.35s-2.46.45-3.33,1.35c-.87.87-1.32,2.01-1.32,3.4s.44,2.53,1.32,3.43Z"/>
              <path class="cls-1" d="M704.91,61.96h-12.68c.56,2.1,2.14,3.16,4.75,3.16,1.66,0,2.91-.56,3.76-1.68l3.49,2.02c-1.66,2.4-4.1,3.6-7.33,3.6-2.78,0-5.01-.84-6.7-2.52s-2.52-3.81-2.52-6.35.83-4.62,2.49-6.32c1.64-1.7,3.76-2.56,6.38-2.56s4.52.85,6.08,2.56c1.62,1.7,2.42,3.81,2.42,6.32,0,.47-.05,1.07-.17,1.78h.03ZM692.17,58.6h8.57c-.25-1.1-.74-1.94-1.5-2.52-.75-.58-1.64-.87-2.67-.87-1.16,0-2.14.3-2.89.9-.77.59-1.26,1.43-1.51,2.5h0Z"/>
              <path class="cls-1" d="M712.44,51.78v2.89c.38-1.06,1.04-1.85,1.95-2.4s1.97-.82,3.16-.82v4.84c-1.33-.17-2.51.09-3.56.81-1.04.7-1.54,1.85-1.54,3.46v8.03h-4.34v-16.81h4.34-.01Z"/>
              <path class="cls-1" d="M723.54,56.55c0,.72,1.01,1.34,3.06,1.85.72.16,1.37.35,1.95.56s1.18.52,1.77.91,1.06.92,1.39,1.56.51,1.4.51,2.25c0,1.73-.65,3.06-1.95,4-1.29.92-2.9,1.38-4.81,1.38-3.45,0-5.8-1.34-7.06-4l3.76-2.12c.52,1.46,1.62,2.19,3.29,2.19,1.54,0,2.32-.49,2.32-1.45,0-.72-1.01-1.34-3.06-1.85-.77-.2-1.41-.4-1.95-.6s-1.12-.5-1.75-.9c-.63-.39-1.1-.9-1.43-1.51-.32-.61-.49-1.34-.49-2.17,0-1.66.6-2.97,1.81-3.9,1.23-.96,2.76-1.45,4.57-1.45,1.37,0,2.61.31,3.73.93,1.12.61,2.01,1.5,2.65,2.64l-3.7,2.02c-.54-1.14-1.43-1.71-2.69-1.71-.56,0-1.02.13-1.39.39-.37.26-.56.59-.56.99h.02Z"/>
              <path class="cls-1" d="M749.1,66.5c-1.7,1.7-3.81,2.56-6.32,2.56s-4.62-.85-6.32-2.56c-1.7-1.7-2.56-3.81-2.56-6.32s.85-4.58,2.56-6.29,3.84-2.59,6.32-2.59,4.59.86,6.32,2.59,2.59,3.82,2.59,6.29-.86,4.59-2.59,6.32ZM739.51,63.51c.87.87,1.96,1.32,3.26,1.32s2.38-.44,3.26-1.32,1.32-1.98,1.32-3.33-.44-2.46-1.32-3.33-1.96-1.32-3.26-1.32-2.38.44-3.26,1.32c-.85.9-1.28,2.01-1.28,3.33s.42,2.44,1.28,3.33Z"/>
              <path class="cls-1" d="M764.1,51.31c1.85,0,3.38.61,4.54,1.85,1.21,1.26,1.81,2.97,1.81,5.11v10.32h-4.34v-9.78c0-1.1-.3-1.95-.9-2.56-.59-.6-1.4-.91-2.44-.91-1.14,0-2.05.36-2.71,1.06s-.99,1.75-.99,3.11v9.08h-4.34v-16.81h4.34v1.89c1.04-1.57,2.7-2.35,5.01-2.35h0Z"/>
              <path class="cls-1" d="M786.93,53.76v-1.98h4.34v16.81h-4.34v-1.98c-1.29,1.64-3.13,2.46-5.48,2.46s-4.17-.85-5.78-2.56c-1.6-1.73-2.38-3.84-2.38-6.32s.8-4.56,2.38-6.29c1.61-1.73,3.54-2.59,5.78-2.59s4.18.82,5.48,2.46h0ZM778.92,63.61c.87.87,1.98,1.32,3.33,1.32s2.46-.44,3.33-1.32c.9-.9,1.35-2.04,1.35-3.43s-.45-2.52-1.35-3.4c-.87-.9-1.98-1.35-3.33-1.35s-2.46.45-3.33,1.35c-.87.87-1.32,2.01-1.32,3.4s.44,2.53,1.32,3.43Z"/>
              <path class="cls-1" d="M799.53,68.59h-4.34v-24.54h4.34v24.54Z"/>
              <path class="cls-1" d="M821.52,51.78v4.17h-3.81v6.99c0,.58.14,1.01.44,1.28s.72.42,1.28.45,1.25.03,2.08-.02v3.94c-2.93.33-5.03.06-6.28-.82s-1.87-2.49-1.87-4.82v-6.99h-2.92v-4.17h2.92v-3.4l4.34-1.32v4.71h3.81Z"/>
              <path class="cls-1" d="M829.19,51.78v2.89c.38-1.06,1.04-1.85,1.95-2.4s1.97-.82,3.16-.82v4.84c-1.33-.17-2.51.09-3.56.81-1.04.7-1.54,1.85-1.54,3.46v8.03h-4.34v-16.81h4.34-.01Z"/>
              <path class="cls-1" d="M848.97,53.76v-1.98h4.34v16.81h-4.34v-1.98c-1.29,1.64-3.13,2.46-5.48,2.46s-4.17-.85-5.78-2.56c-1.6-1.73-2.38-3.84-2.38-6.32s.8-4.56,2.38-6.29c1.61-1.73,3.54-2.59,5.78-2.59s4.18.82,5.48,2.46h0ZM840.96,63.61c.87.87,1.98,1.32,3.33,1.32s2.46-.44,3.33-1.32c.9-.9,1.35-2.04,1.35-3.43s-.45-2.52-1.35-3.4c-.87-.9-1.98-1.35-3.33-1.35s-2.46.45-3.33,1.35c-.87.87-1.32,2.01-1.32,3.4s.44,2.53,1.32,3.43Z"/>
              <path class="cls-1" d="M859.38,49.76c-.72,0-1.34-.26-1.87-.79s-.79-1.15-.79-1.87.26-1.35.79-1.89,1.15-.81,1.87-.81,1.37.27,1.9.81.79,1.16.79,1.89-.26,1.34-.79,1.87c-.53.53-1.15.79-1.9.79ZM861.57,68.59h-4.34v-16.81h4.34v16.81Z"/>
              <path class="cls-1" d="M874.89,51.31c1.85,0,3.38.61,4.54,1.85,1.21,1.26,1.81,2.97,1.81,5.11v10.32h-4.34v-9.78c0-1.1-.3-1.95-.9-2.56-.59-.6-1.4-.91-2.44-.91-1.14,0-2.05.36-2.71,1.06s-.99,1.75-.99,3.11v9.08h-4.34v-16.81h4.34v1.89c1.04-1.57,2.7-2.35,5.01-2.35h0Z"/>
              <path class="cls-1" d="M901.29,61.96h-12.68c.56,2.1,2.14,3.16,4.75,3.16,1.66,0,2.91-.56,3.76-1.68l3.49,2.02c-1.66,2.4-4.1,3.6-7.33,3.6-2.78,0-5.01-.84-6.7-2.52s-2.52-3.81-2.52-6.35.83-4.62,2.49-6.32c1.64-1.7,3.76-2.56,6.38-2.56s4.52.85,6.08,2.56c1.61,1.7,2.42,3.81,2.42,6.32,0,.47-.05,1.07-.17,1.78h.03ZM888.54,58.6h8.57c-.25-1.1-.74-1.94-1.5-2.52-.75-.58-1.64-.87-2.67-.87-1.16,0-2.14.3-2.89.9-.77.59-1.26,1.43-1.51,2.5h0Z"/>
              <path class="cls-1" d="M908.82,51.78v2.89c.38-1.06,1.04-1.85,1.95-2.4s1.97-.82,3.16-.82v4.84c-1.33-.17-2.51.09-3.56.81-1.04.7-1.54,1.85-1.54,3.46v8.03h-4.34v-16.81h4.34-.01Z"/>
            </g>
            <path class="cls-1" d="M681.19,85.29v-1.98h4.34v16.81h-4.34v-1.98c-1.29,1.64-3.13,2.46-5.48,2.46s-4.17-.85-5.78-2.56c-1.6-1.73-2.38-3.84-2.38-6.32s.8-4.56,2.38-6.29c1.62-1.73,3.54-2.59,5.78-2.59s4.18.82,5.48,2.46h0ZM673.19,95.13c.87.87,1.98,1.32,3.33,1.32s2.46-.44,3.33-1.32c.9-.9,1.35-2.04,1.35-3.43s-.45-2.52-1.35-3.4c-.87-.9-1.98-1.35-3.33-1.35s-2.46.45-3.33,1.35c-.87.87-1.32,2.01-1.32,3.4s.44,2.53,1.32,3.43Z"/>
            <path class="cls-1" d="M697.46,100.59c-2.53,0-4.65-.85-6.35-2.56-1.68-1.7-2.52-3.81-2.52-6.32s.84-4.62,2.52-6.32c1.7-1.7,3.82-2.56,6.35-2.56,1.64,0,3.13.39,4.48,1.18,1.35.79,2.36,1.84,3.06,3.16l-3.73,2.19c-.33-.69-.84-1.24-1.53-1.65s-1.46-.6-2.31-.6c-1.29,0-2.37.43-3.22,1.29-.85.86-1.28,1.96-1.28,3.31s.42,2.4,1.28,3.3c.85.85,1.93,1.28,3.22,1.28.87,0,1.65-.19,2.34-.59s1.2-.94,1.53-1.63l3.76,2.16c-.73,1.35-1.79,2.4-3.15,3.19-1.36.79-2.84,1.18-4.45,1.18h0Z"/>
            <path class="cls-1" d="M719.86,85.29v-1.98h4.34v16.81h-4.34v-1.98c-1.29,1.64-3.13,2.46-5.48,2.46s-4.17-.85-5.78-2.56c-1.6-1.73-2.38-3.84-2.38-6.32s.8-4.56,2.38-6.29c1.62-1.73,3.54-2.59,5.78-2.59s4.18.82,5.48,2.46h0ZM711.86,95.13c.87.87,1.98,1.32,3.33,1.32s2.46-.44,3.33-1.32c.9-.9,1.35-2.04,1.35-3.43s-.45-2.52-1.35-3.4c-.87-.9-1.98-1.35-3.33-1.35s-2.46.45-3.33,1.35c-.87.87-1.32,2.01-1.32,3.4s.44,2.53,1.32,3.43Z"/>
            <path class="cls-1" d="M740.88,85.29v-8.71h4.34v23.54h-4.34v-1.98c-1.28,1.64-3.1,2.46-5.45,2.46s-4.21-.85-5.82-2.56c-1.6-1.73-2.38-3.84-2.38-6.32s.8-4.56,2.38-6.29c1.62-1.73,3.56-2.59,5.82-2.59s4.17.82,5.45,2.46h0ZM732.88,95.13c.92.87,2.04,1.32,3.36,1.32s2.46-.44,3.33-1.32c.87-.9,1.32-2.04,1.32-3.43s-.44-2.52-1.32-3.4c-.87-.9-1.98-1.35-3.33-1.35s-2.47.45-3.36,1.35c-.87.87-1.32,2.01-1.32,3.4s.44,2.53,1.32,3.43Z"/>
            <path class="cls-1" d="M765.53,93.49h-12.68c.56,2.1,2.14,3.16,4.75,3.16,1.66,0,2.91-.56,3.76-1.68l3.49,2.02c-1.66,2.4-4.1,3.6-7.33,3.6-2.78,0-5.01-.84-6.7-2.52s-2.52-3.81-2.52-6.35.83-4.62,2.49-6.32c1.64-1.7,3.76-2.56,6.38-2.56s4.52.85,6.08,2.56c1.61,1.7,2.42,3.81,2.42,6.32,0,.47-.05,1.07-.17,1.78h.03ZM752.78,90.13h8.57c-.25-1.1-.74-1.94-1.5-2.52-.75-.58-1.64-.87-2.67-.87-1.16,0-2.14.3-2.89.9-.77.59-1.26,1.43-1.51,2.5h0Z"/>
            <path class="cls-1" d="M787.31,82.83c1.93,0,3.47.63,4.63,1.89s1.74,2.93,1.74,5.05v10.35h-4.34v-10.05c0-1.01-.25-1.79-.73-2.35-.5-.56-1.19-.84-2.08-.84-.98,0-1.76.32-2.31.97s-.82,1.6-.82,2.83v9.45h-4.34v-10.05c0-1.01-.25-1.79-.73-2.35-.5-.56-1.19-.84-2.08-.84-.96,0-1.74.33-2.31.99s-.86,1.6-.86,2.8v9.45h-4.34v-16.81h4.34v1.78c1.01-1.5,2.57-2.25,4.68-2.25s3.61.81,4.57,2.42c1.1-1.62,2.77-2.42,5.01-2.42h-.03Z"/>
            <path class="cls-1" d="M804.23,94.6l3.73-11.3h4.64l-6.11,16.81c-.87,2.42-2.03,4.17-3.48,5.26s-3.25,1.57-5.4,1.47v-4.03c1.14.02,2.06-.23,2.76-.73.69-.52,1.24-1.35,1.65-2.49l-6.89-16.27h4.75l4.37,11.3h0Z"/>
          </g>
        </g>
      </g>
      <g>
        <path class="cls-2" d="M151.32,78.71l-11.08,6.4c-.08.05-.16.09-.24.13l-44.32,25.46c-1.32.76-2.89.71-4.13,0h0s-21.28-12.15-21.28-12.15c-.31-.09-.61-.22-.91-.39l-21.42-12.37-1.17-.67c-.07-.04-.14-.08-.2-.13l-10.89-6.29v48.48c19.27-6.31,38.54-9.41,57.83-9.38,19.31.03,38.58,3.19,57.83,9.4v-48.5ZM92.57,30.38c-1.99-1.14-2.67-3.68-1.53-5.67,1.14-1.99,3.68-2.67,5.67-1.53l46.32,26.74c1.99,1.14,2.67,3.68,1.53,5.67-1.14,1.99-3.68,2.67-5.67,1.53l-46.32-26.74ZM72.89,19.04c-1.99-1.15-2.67-3.7-1.52-5.69,1.15-1.99,3.7-2.67,5.68-1.51l6.3,3.64c1.99,1.15,2.67,3.7,1.51,5.69-1.15,1.99-3.7,2.66-5.68,1.51l-6.3-3.64ZM75.72,40.11c-1.99-1.14-2.67-3.68-1.53-5.67,1.14-1.99,3.68-2.67,5.67-1.53l46.32,26.74c1.99,1.14,2.67,3.68,1.53,5.67-1.14,1.99-3.68,2.67-5.67,1.53l-46.32-26.74ZM56.04,28.76c-1.99-1.15-2.67-3.7-1.52-5.68,1.15-1.99,3.7-2.67,5.68-1.51l6.3,3.64c1.99,1.15,2.67,3.7,1.51,5.68-1.15,1.99-3.7,2.67-5.68,1.51l-6.3-3.64ZM58.87,49.84c-1.99-1.14-2.67-3.68-1.53-5.67,1.14-1.99,3.68-2.67,5.67-1.53l46.32,26.74c1.99,1.14,2.67,3.68,1.53,5.67-1.14,1.99-3.68,2.67-5.67,1.53l-46.32-26.74ZM39.19,38.49c-1.99-1.15-2.67-3.7-1.51-5.68,1.15-1.99,3.7-2.67,5.68-1.52l6.3,3.64c1.99,1.15,2.67,3.7,1.51,5.68-1.15,1.99-3.7,2.67-5.69,1.51l-6.3-3.64ZM42.02,59.57c-1.99-1.14-2.67-3.68-1.53-5.67,1.14-1.99,3.68-2.68,5.67-1.53l46.32,26.74c1.99,1.14,2.67,3.68,1.53,5.67-1.14,1.99-3.68,2.67-5.67,1.53l-46.32-26.74ZM22.35,48.22c-1.99-1.15-2.67-3.7-1.51-5.68,1.15-1.99,3.7-2.66,5.68-1.51l6.3,3.64c1.99,1.15,2.67,3.7,1.51,5.68-1.15,1.99-3.7,2.67-5.68,1.52l-6.3-3.64ZM91.42,7.75c-1.99-1.14-2.67-3.68-1.53-5.67,1.14-1.99,3.68-2.67,5.67-1.53l44.68,25.8h0s44.66,25.78,44.66,25.78c1.99,1.15,2.66,3.7,1.51,5.68-.39.67-.94,1.19-1.56,1.54l-6.68,3.86c.09.34.14.69.14,1.06v58.23c0,2.3-1.87,4.17-4.17,4.17s-4.17-1.87-4.17-4.17v-54.56l-10.32,5.96v59.12h0c0,.46-.08.93-.24,1.38-.76,2.17-3.14,3.3-5.31,2.54-20.24-7.15-40.45-10.8-60.61-10.83-20.07-.03-40.15,3.5-60.24,10.68-.53.25-1.13.39-1.76.39-2.3,0-4.17-1.87-4.17-4.17v-59.12L2.08,59.33c-1.99-1.15-2.67-3.7-1.51-5.68,1.15-1.99,3.7-2.67,5.68-1.51l27.32,15.77h.01s17.14,9.9,17.14,9.9c.06.03.12.06.18.1l42.72,24.41,42.25-24.27c.07-.04.14-.09.21-.13l17.09-9.86c.16-.11.33-.21.51-.3l20.83-12.03-38.43-22.19h0S91.42,7.75,91.42,7.75Z"/>
        <g>
          <rect class="cls-3" x="203.35" y="78.88" width="300.05" height="1.74" rx=".51" ry=".51"/>
          <g>
            <path class="cls-1" d="M218.23,68.14c-5.31,0-10.67-1.85-14.88-5.61l4.56-5.46c3.16,2.6,6.46,4.26,10.47,4.26,3.16,0,5.06-1.25,5.06-3.31v-.1c0-1.95-1.2-2.96-7.06-4.46-7.06-1.8-11.62-3.76-11.62-10.72v-.1c0-6.36,5.11-10.57,12.27-10.57,5.11,0,9.47,1.6,13.02,4.46l-4.01,5.81c-3.11-2.15-6.16-3.46-9.12-3.46s-4.51,1.35-4.51,3.06v.1c0,2.3,1.5,3.06,7.56,4.61,7.11,1.85,11.12,4.41,11.12,10.52v.1c0,6.96-5.31,10.87-12.87,10.87Z"/>
            <path class="cls-1" d="M235.31,67.64v-35.06h26.45v6.86h-18.78v7.11h16.53v6.86h-16.53v7.36h19.03v6.86h-26.7Z"/>
            <path class="cls-1" d="M293.76,67.64v-22.89l-9.87,14.98h-.2l-9.77-14.83v22.74h-7.56v-35.06h8.31l9.22,14.83,9.22-14.83h8.32v35.06h-7.66Z"/>
            <path class="cls-1" d="M333.42,67.64l-3.21-7.86h-14.83l-3.21,7.86h-7.86l15.03-35.31h7.11l15.03,35.31h-8.06ZM322.8,41.6l-4.66,11.37h9.32l-4.66-11.37Z"/>
            <path class="cls-1" d="M368.98,67.64l-16.98-22.29v22.29h-7.61v-35.06h7.11l16.43,21.59v-21.59h7.61v35.06h-6.56Z"/>
            <path class="cls-1" d="M407.55,67.64l-3.21-7.86h-14.83l-3.21,7.86h-7.86l15.03-35.31h7.11l15.03,35.31h-8.06ZM396.93,41.6l-4.66,11.37h9.32l-4.66-11.37Z"/>
            <path class="cls-1" d="M444.71,67.64h-13.67v-35.06h13.67c11.02,0,18.63,7.56,18.63,17.43v.1c0,9.87-7.61,17.53-18.63,17.53ZM455.27,50.11c0-6.21-4.26-10.57-10.57-10.57h-5.96v21.14h5.96c6.31,0,10.57-4.26,10.57-10.47v-.1Z"/>
            <path class="cls-1" d="M484.72,68.24c-10.82,0-18.58-8.06-18.58-18.03v-.1c0-9.97,7.86-18.13,18.68-18.13s18.58,8.06,18.58,18.03v.1c0,9.97-7.86,18.13-18.68,18.13ZM495.34,50.11c0-6.01-4.41-11.02-10.62-11.02s-10.52,4.91-10.52,10.92v.1c0,6.01,4.41,11.02,10.62,11.02s10.52-4.91,10.52-10.92v-.1Z"/>
          </g>
          <g>
            <path class="cls-1" d="M219.18,123.17c-9.08,0-15.83-7.01-15.83-15.87v-.09c0-8.77,6.61-15.96,16.09-15.96,5.82,0,9.3,1.94,12.17,4.76l-4.32,4.98c-2.38-2.16-4.81-3.48-7.89-3.48-5.2,0-8.95,4.32-8.95,9.61v.09c0,5.29,3.66,9.7,8.95,9.7,3.53,0,5.69-1.41,8.11-3.62l4.32,4.37c-3.17,3.4-6.7,5.51-12.65,5.51Z"/>
            <path class="cls-1" d="M249.16,123.17c-9.52,0-16.36-7.1-16.36-15.87v-.09c0-8.77,6.92-15.96,16.45-15.96s16.36,7.1,16.36,15.87v.09c0,8.77-6.92,15.96-16.45,15.96ZM258.51,107.21c0-5.29-3.88-9.7-9.35-9.7s-9.26,4.32-9.26,9.61v.09c0,5.29,3.88,9.7,9.35,9.7s9.26-4.32,9.26-9.61v-.09Z"/>
            <path class="cls-1" d="M291.09,122.64l-14.95-19.62v19.62h-6.7v-30.86h6.26l14.46,19v-19h6.7v30.86h-5.78Z"/>
            <path class="cls-1" d="M313.04,123.08c-4.67,0-9.39-1.63-13.1-4.94l4.01-4.81c2.78,2.29,5.69,3.75,9.21,3.75,2.78,0,4.45-1.1,4.45-2.91v-.09c0-1.72-1.06-2.6-6.22-3.92-6.22-1.59-10.23-3.31-10.23-9.44v-.09c0-5.6,4.5-9.3,10.8-9.3,4.5,0,8.33,1.41,11.46,3.92l-3.53,5.11c-2.73-1.9-5.42-3.04-8.02-3.04s-3.97,1.19-3.97,2.69v.09c0,2.03,1.32,2.69,6.66,4.06,6.26,1.63,9.79,3.88,9.79,9.26v.09c0,6.13-4.67,9.57-11.33,9.57Z"/>
            <path class="cls-1" d="M340.95,123.12c-8.29,0-13.36-4.63-13.36-13.71v-17.64h6.79v17.46c0,5.03,2.51,7.63,6.66,7.63s6.66-2.51,6.66-7.41v-17.68h6.79v17.42c0,9.35-5.25,13.93-13.54,13.93Z"/>
            <path class="cls-1" d="M383.32,122.64v-20.15l-8.69,13.18h-.18l-8.6-13.05v20.02h-6.66v-30.86h7.32l8.11,13.05,8.11-13.05h7.32v30.86h-6.75Z"/>
            <path class="cls-1" d="M395.57,122.64v-30.86h6.79v30.86h-6.79Z"/>
            <path class="cls-1" d="M419.91,122.64h-12.04v-30.86h12.04c9.7,0,16.4,6.66,16.4,15.34v.09c0,8.69-6.7,15.43-16.4,15.43ZM429.21,107.21c0-5.47-3.75-9.3-9.3-9.3h-5.25v18.61h5.25c5.56,0,9.3-3.75,9.3-9.22v-.09Z"/>
            <path class="cls-1" d="M455.14,123.17c-9.52,0-16.36-7.1-16.36-15.87v-.09c0-8.77,6.92-15.96,16.45-15.96s16.36,7.1,16.36,15.87v.09c0,8.77-6.92,15.96-16.45,15.96ZM464.48,107.21c0-5.29-3.88-9.7-9.35-9.7s-9.26,4.32-9.26,9.61v.09c0,5.29,3.88,9.7,9.35,9.7s9.26-4.32,9.26-9.61v-.09Z"/>
            <path class="cls-1" d="M494.15,122.64l-6.61-9.88h-5.33v9.88h-6.79v-30.86h14.11c7.28,0,11.64,3.84,11.64,10.19v.09c0,4.98-2.69,8.11-6.61,9.57l7.54,11.02h-7.94ZM494.29,102.31c0-2.91-2.03-4.41-5.34-4.41h-6.75v8.86h6.88c3.31,0,5.2-1.76,5.2-4.37v-.09Z"/>
          </g>
        </g>
      </g>
    </g>
  </g>
</svg>