<svg xmlns="http://www.w3.org/2000/svg" id="Camada_2" data-name="Camada 2" viewBox="0 0 678.01 278.12"><defs><style>      .cls-1 {        fill: #f4ac38;      }    </style></defs><g id="Layer_1" data-name="Layer 1"><g><path class="cls-1" d="M68.51,65.13l-8.68,31.37,48.25-12.87L16.84,278.12l17.31-131.84L0,155.39,24.53,32.77v-.02S147.31,0,147.31,0l-23.66,50.42-55.14,14.71Z"></path><g><path class="cls-1" d="M169.21,85.5h-14.35v-12.48h42.42v12.48h-14.35v74.86h-13.73v-74.86Z"></path><path class="cls-1" d="M203.89,73.03h20.34c7.07,0,12.23,1.64,15.47,4.93,3.24,3.29,4.87,8.34,4.87,15.16v5.37c0,9.07-2.99,14.81-8.98,17.22v.25c3.33,1,5.68,3.04,7.05,6.11,1.37,3.08,2.06,7.2,2.06,12.35v15.35c0,2.5.08,4.51.25,6.05.17,1.54.58,3.06,1.25,4.55h-13.97c-.5-1.41-.83-2.75-1-3.99-.17-1.25-.25-3.49-.25-6.74v-15.97c0-3.99-.65-6.78-1.93-8.36-1.29-1.58-3.52-2.37-6.68-2.37h-4.74v37.43h-13.73v-87.34ZM222.61,110.46c2.75,0,4.8-.71,6.18-2.12,1.37-1.41,2.06-3.78,2.06-7.11v-6.74c0-3.16-.56-5.45-1.68-6.86-1.12-1.41-2.89-2.12-5.3-2.12h-6.24v24.95h4.99Z"></path><path class="cls-1" d="M254.18,73.03h37.43v12.48h-23.71v23.08h18.84v12.48h-18.84v26.83h23.71v12.48h-37.43v-87.34Z"></path><path class="cls-1" d="M299.47,73.03h13.72v87.34h-13.72v-87.34Z"></path><path class="cls-1" d="M323.42,73.03h17.22l13.35,52.28h.25v-52.28h12.23v87.34h-14.1l-16.47-63.76h-.25v63.76h-12.23v-87.34Z"></path><path class="cls-1" d="M387.3,73.03h18.59l14.22,87.34h-13.73l-2.5-17.34v.25h-15.6l-2.5,17.09h-12.73l14.22-87.34ZM402.28,131.42l-6.11-43.17h-.25l-5.99,43.17h12.35Z"></path><path class="cls-1" d="M426.73,73.03h19.59l8.73,62.51h.25l8.73-62.51h19.59v87.34h-12.98v-66.13h-.25l-9.98,66.13h-11.48l-9.98-66.13h-.25v66.13h-11.98v-87.34Z"></path><path class="cls-1" d="M493.86,73.03h37.43v12.48h-23.71v23.08h18.84v12.48h-18.84v26.83h23.71v12.48h-37.43v-87.34Z"></path><path class="cls-1" d="M539.15,73.03h17.22l13.35,52.28h.25v-52.28h12.23v87.34h-14.1l-16.47-63.76h-.25v63.76h-12.23v-87.34Z"></path><path class="cls-1" d="M603.15,85.5h-14.35v-12.48h42.42v12.48h-14.35v74.86h-13.72v-74.86Z"></path><path class="cls-1" d="M641.71,155.88c-3.58-3.83-5.37-9.23-5.37-16.22v-45.92c0-6.99,1.79-12.39,5.37-16.22,3.58-3.83,8.73-5.74,15.47-5.74s11.89,1.91,15.47,5.74c3.58,3.83,5.37,9.23,5.37,16.22v45.92c0,6.99-1.79,12.4-5.37,16.22-3.58,3.83-8.73,5.74-15.47,5.74s-11.9-1.91-15.47-5.74ZM664.29,140.53v-47.66c0-5.74-2.37-8.61-7.11-8.61s-7.11,2.87-7.11,8.61v47.66c0,5.74,2.37,8.61,7.11,8.61s7.11-2.87,7.11-8.61Z"></path></g><g><path class="cls-1" d="M161.48,175.21h36.31v12.48h-22.58v24.33h17.72v12.48h-17.72v38.06h-13.73v-87.34Z"></path><path class="cls-1" d="M209.14,258.12c-3.49-3.78-5.24-9.21-5.24-16.28v-66.63h13.72v67.63c0,2.99.6,5.16,1.81,6.49,1.2,1.33,2.93,2,5.18,2s3.97-.66,5.18-2c1.2-1.33,1.81-3.49,1.81-6.49v-67.63h13.23v66.63c0,7.07-1.75,12.5-5.24,16.28-3.49,3.79-8.57,5.68-15.22,5.68s-11.73-1.89-15.22-5.68Z"></path><path class="cls-1" d="M254.55,175.21h17.22l13.35,52.28h.25v-52.28h12.23v87.34h-14.1l-16.47-63.76h-.25v63.76h-12.23v-87.34Z"></path><path class="cls-1" d="M312.14,258.18c-3.45-3.74-5.18-9.02-5.18-15.85v-46.91c0-6.82,1.73-12.1,5.18-15.85,3.45-3.74,8.46-5.61,15.03-5.61s11.58,1.87,15.04,5.61c3.45,3.74,5.18,9.03,5.18,15.85v9.23h-12.98v-10.11c0-5.41-2.29-8.11-6.86-8.11s-6.86,2.7-6.86,8.11v48.79c0,5.32,2.29,7.99,6.86,7.99s6.86-2.66,6.86-7.99v-13.35h12.98v12.35c0,6.82-1.73,12.1-5.18,15.85-3.45,3.74-8.47,5.61-15.04,5.61s-11.58-1.87-15.03-5.61Z"></path><path class="cls-1" d="M355.62,175.21h13.73v87.34h-13.73v-87.34Z"></path><path class="cls-1" d="M383.94,258.05c-3.58-3.83-5.37-9.23-5.37-16.22v-45.92c0-6.99,1.79-12.39,5.37-16.22,3.58-3.83,8.73-5.74,15.47-5.74s11.89,1.91,15.47,5.74c3.58,3.83,5.37,9.23,5.37,16.22v45.92c0,6.99-1.79,12.4-5.37,16.22-3.58,3.83-8.73,5.74-15.47,5.74s-11.9-1.91-15.47-5.74ZM406.52,242.71v-47.66c0-5.74-2.37-8.61-7.11-8.61s-7.11,2.87-7.11,8.61v47.66c0,5.74,2.37,8.61,7.11,8.61s7.11-2.87,7.11-8.61Z"></path><path class="cls-1" d="M429.48,175.21h17.22l13.35,52.28h.25v-52.28h12.23v87.34h-14.1l-16.47-63.76h-.25v63.76h-12.23v-87.34Z"></path><path class="cls-1" d="M493.36,175.21h18.59l14.22,87.34h-13.73l-2.5-17.34v.25h-15.6l-2.5,17.09h-12.73l14.22-87.34ZM508.33,233.6l-6.11-43.17h-.25l-5.99,43.17h12.35Z"></path><path class="cls-1" d="M532.79,175.21h13.72v74.86h22.58v12.48h-36.31v-87.34Z"></path></g><g><path class="cls-1" d="M157.7,22.66h10.48c2.68,0,4.91.89,6.7,2.68,1.81,1.79,2.72,4.01,2.72,6.66s-.91,4.85-2.72,6.66c-1.79,1.79-4.02,2.68-6.7,2.68h-5.81v9.75h-4.67v-28.43ZM162.37,36.96h5.81c1.38,0,2.52-.47,3.41-1.4s1.34-2.12,1.34-3.55-.45-2.62-1.34-3.55c-.89-.93-2.03-1.4-3.41-1.4h-5.81v9.91Z"></path><path class="cls-1" d="M194.74,51.62c-4.12,0-7.61-1.42-10.48-4.26-2.84-2.87-4.26-6.36-4.26-10.48s1.42-7.6,4.26-10.44,6.36-4.31,10.48-4.31,7.6,1.44,10.44,4.31c2.87,2.84,4.31,6.32,4.31,10.44s-1.44,7.61-4.31,10.48-6.32,4.26-10.44,4.26ZM194.74,47.07c2.84,0,5.23-.96,7.15-2.88,1.95-1.95,2.92-4.39,2.92-7.31s-.97-5.35-2.92-7.27c-1.9-1.95-4.28-2.92-7.15-2.92s-5.24.97-7.19,2.92c-1.92,1.92-2.88,4.35-2.88,7.27s.96,5.33,2.88,7.31c1.98,1.92,4.37,2.88,7.19,2.88ZM196.12,19.82l4.31-5.48h-5.28l-3.25,5.48h4.22Z"></path><path class="cls-1" d="M222.16,51.62c-2.73,0-5.06-.62-6.97-1.85-1.91-1.23-3.24-2.94-4-5.14l4.02-2.36c1.14,3.2,3.49,4.79,7.07,4.79,1.73,0,3.05-.34,3.94-1.02.89-.68,1.34-1.58,1.34-2.72s-.47-2.02-1.42-2.64c-.95-.62-2.63-1.3-5.04-2.03-2.46-.73-4.45-1.6-5.97-2.6-1.84-1.3-2.76-3.21-2.76-5.73s.89-4.51,2.68-5.97c1.76-1.49,3.91-2.23,6.46-2.23,2.25,0,4.23.55,5.95,1.64,1.72,1.1,3.04,2.63,3.96,4.61l-3.94,2.27c-1.19-2.65-3.18-3.98-5.97-3.98-1.35,0-2.44.32-3.25.95-.81.64-1.22,1.5-1.22,2.58s.41,1.89,1.22,2.5,2.32,1.25,4.51,1.93c1.35.46,2.14.73,2.36.81.35.11,1.06.38,2.11.81.87.35,1.56.73,2.07,1.14,2.11,1.65,3.09,3.6,2.92,5.85,0,2.57-.93,4.62-2.8,6.13-1.81,1.49-4.24,2.23-7.27,2.23Z"></path><path class="cls-1" d="M250.91,40.85h-15.03v-4.22h15.03v4.22Z"></path><path class="cls-1" d="M270.04,36.39h14.22v1.95c0,3.9-1.29,7.09-3.86,9.59-2.55,2.46-5.9,3.7-10.07,3.7-4.39,0-8.02-1.42-10.88-4.26-2.84-2.84-4.26-6.34-4.26-10.48s1.42-7.6,4.26-10.44c2.87-2.87,6.42-4.31,10.64-4.31,2.63,0,5.04.6,7.25,1.81,2.21,1.21,3.92,2.85,5.14,4.93l-4.02,2.32c-.76-1.38-1.88-2.48-3.37-3.29-1.49-.81-3.15-1.22-5-1.22-2.98,0-5.43.97-7.35,2.92-1.92,1.98-2.88,4.41-2.88,7.31s.96,5.35,2.88,7.27c1.98,1.92,4.52,2.88,7.64,2.88,2.49,0,4.54-.58,6.13-1.75,1.6-1.16,2.61-2.75,3.05-4.75h-9.5v-4.18Z"></path><path class="cls-1" d="M309.85,51.09h-5.12l-6.01-10.36h-5.52v10.36h-4.67v-28.43h11.37c2.54,0,4.7.89,6.46,2.68,1.79,1.73,2.68,3.89,2.68,6.46,0,1.81-.52,3.47-1.56,4.98-1.04,1.5-2.4,2.59-4.08,3.27l6.46,11.05ZM299.9,27.05h-6.7v9.5h6.7c1.24,0,2.3-.46,3.17-1.38.87-.92,1.3-2.04,1.3-3.37s-.43-2.45-1.3-3.37c-.87-.92-1.92-1.38-3.17-1.38Z"></path><path class="cls-1" d="M336.98,51.09h-5.04l-1.99-5.73h-12.1l-1.99,5.73h-5.08l10.32-28.43h5.6l10.28,28.43ZM323.9,28.14l-4.51,12.83h9.02l-4.51-12.83Z"></path><path class="cls-1" d="M340.02,22.66h11.17c3.9,0,7.13,1.37,9.71,4.1,2.6,2.74,3.9,6.11,3.9,10.11s-1.3,7.35-3.9,10.11c-2.57,2.74-5.81,4.1-9.71,4.1h-11.17v-28.43ZM344.69,46.62h6.5c2.68,0,4.86-.92,6.54-2.76,1.71-1.84,2.56-4.17,2.56-6.99s-.85-5.14-2.56-6.99c-1.68-1.84-3.86-2.76-6.54-2.76h-6.5v19.5Z"></path><path class="cls-1" d="M368.53,41.67v-19.01h4.67v18.72c0,1.76.52,3.15,1.56,4.16,1.04,1.02,2.55,1.52,4.53,1.52s3.49-.51,4.53-1.52c1.04-1.02,1.56-2.4,1.56-4.16v-18.72h4.67v19.01c0,3.01-1,5.43-3.01,7.27-1.98,1.79-4.56,2.68-7.76,2.68s-5.78-.89-7.76-2.68c-2-1.84-3.01-4.26-3.01-7.27Z"></path><path class="cls-1" d="M418.17,51.09h-5.04l-1.99-5.73h-12.1l-1.99,5.73h-5.08l10.32-28.43h5.6l10.28,28.43ZM405.09,28.14l-4.51,12.83h9.02l-4.51-12.83Z"></path><path class="cls-1" d="M433.6,47.07c1.79,0,3.41-.41,4.87-1.24,1.46-.83,2.56-1.94,3.29-3.35l4.06,2.32c-1.03,1.84-2.46,3.35-4.28,4.53-1.83,1.18-3.85,1.9-6.07,2.17v1.46c.95.16,1.71.53,2.29,1.1.58.57.87,1.27.87,2.11,0,2.84-2.91,4.07-8.73,3.7v-3.21c3.28.27,4.91-.07,4.91-1.02,0-.73-.99-1.14-2.96-1.22v-2.88c-3.82-.41-6.97-1.99-9.46-4.75-2.44-2.76-3.66-6.06-3.66-9.91,0-4.17,1.41-7.66,4.22-10.48,2.79-2.84,6.34-4.26,10.64-4.26,2.57,0,4.95.61,7.13,1.83,2.18,1.22,3.88,2.87,5.1,4.96l-4.06,2.36c-.76-1.41-1.86-2.52-3.31-3.35-1.45-.83-3.07-1.24-4.85-1.24-3.01,0-5.47.96-7.39,2.88-1.87,1.9-2.8,4.33-2.8,7.31s.93,5.42,2.8,7.31c1.92,1.92,4.39,2.88,7.39,2.88Z"></path><path class="cls-1" d="M473.04,51.09h-5.04l-1.99-5.73h-12.1l-1.99,5.73h-5.08l10.32-28.43h5.6l10.28,28.43ZM459.64,19c-.89-.73-1.54-1.04-1.95-.91-.41.12-.61.74-.61,1.85h-3.61c0-1.9.35-3.32,1.06-4.29.7-.96,1.56-1.4,2.58-1.32,1.02.08,2.09.46,3.23,1.14.87.73,1.5,1.04,1.91.91.41-.12.61-.74.61-1.85h3.61c0,1.14-.13,2.12-.39,2.94-.26.83-.61,1.44-1.06,1.85-.45.41-.96.66-1.54.77-.58.11-1.2.07-1.85-.12-.65-.19-1.31-.51-1.99-.97ZM459.96,28.14l-4.51,12.83h9.02l-4.51-12.83Z"></path><path class="cls-1" d="M498.79,47.35c-2.84,2.84-6.32,4.26-10.44,4.26s-7.61-1.42-10.48-4.26c-2.84-2.87-4.26-6.36-4.26-10.48s1.42-7.6,4.26-10.44,6.36-4.31,10.48-4.31,7.6,1.44,10.44,4.31c2.87,2.84,4.31,6.32,4.31,10.44s-1.44,7.61-4.31,10.48ZM481.16,44.18c1.98,1.92,4.37,2.88,7.19,2.88s5.23-.96,7.15-2.88c1.95-1.95,2.92-4.39,2.92-7.31s-.97-5.35-2.92-7.27c-1.92-1.95-4.31-2.92-7.15-2.92s-5.24.97-7.19,2.92c-1.92,1.92-2.88,4.35-2.88,7.27s.96,5.33,2.88,7.31Z"></path><path class="cls-1" d="M522.18,38.95v7.68h12.59v4.47h-17.26v-28.43h17.06v4.47h-12.39v7.39h11.37v4.43h-11.37Z"></path><path class="cls-1" d="M561.26,22.66h5v28.43h-4.67v-20.27l-8.65,14.3h-.57l-8.65-14.34v20.31h-4.67v-28.43h5.04l8.57,14.22,8.61-14.22Z"></path></g></g></g></svg>